<svg class="feather feather-cpu" stroke-linecap="round" stroke-linejoin="round" stroke-width="2" version="1.1" viewBox="0 0 24 24" xmlns="http://www.w3.org/2000/svg">
 <path transform="scale(-1)" d="m-4.8672 0c2.6746 0 4.8672-2.1926 4.8672-4.8672v-7.1328-2.5-4.6328c0-2.6746-2.1926-4.8672-4.8672-4.8672h-14.266c-2.6746 0-4.8672 2.1926-4.8672 4.8672v4.6328 2.5 7.1328c0 2.6746 2.1926 4.8672 4.8672 4.8672h14.266zm0-2.5h-14.266c-1.3329 0-2.3672-1.0343-2.3672-2.3672v-7.1328h19v7.1328c0 1.3329-1.0343 2.3672-2.3672 2.3672zm2.3672-12h-19v-4.6328c0-1.3329 1.0343-2.3672 2.3672-2.3672h14.266c1.3329 0 2.3672 1.0343 2.3672 2.3672v4.6328z" fill="#009a2c" stop-color="#000000" stroke-linecap="square" stroke-linejoin="bevel"/>
</svg>
